<?xml version="1.0" encoding="utf-8"?>
<!-- Generator: Adobe Illustrator 16.0.0, SVG Export Plug-In . SVG Version: 6.00 Build 0)  -->
<!DOCTYPE svg PUBLIC "-//W3C//DTD SVG 1.1//EN" "http://www.w3.org/Graphics/SVG/1.1/DTD/svg11.dtd">
<svg version="1.1" id="图层_1" xmlns="http://www.w3.org/2000/svg" xmlns:xlink="http://www.w3.org/1999/xlink" x="0px" y="0px"
	 viewBox="0 0 200 200" enable-background="new 0 0 200 200" xml:space="preserve">
<path fill="#FFCE5F" d="M100,6.699C48.471,6.699,6.699,48.471,6.699,100c0,51.527,41.772,93.301,93.301,93.301
	c51.527,0,93.301-41.771,93.301-93.301C193.301,48.471,151.527,6.699,100,6.699z M81.341,113.74c0,9.119-2.682,15.881-8.041,20.279
	c-4.32,3.52-9.92,5.277-16.8,5.277c-8.88,0-15.44-2.559-19.68-7.68c-3.201-3.842-4.8-8.438-4.8-13.801v-8.521h10.92v6
	c0,4.962,1.159,8.603,3.48,10.921c2.08,2.081,5.239,3.12,9.48,3.12c5.04,0,8.68-1.397,10.92-4.198
	c1.92-2.399,2.88-5.959,2.88-10.683v-63.6h11.64L81.341,113.74L81.341,113.74z M153.102,133.898c-6,3.602-13.48,5.398-22.439,5.398
	c-7.121,0-12.96-0.92-17.521-2.76c-2.961-1.199-5.802-3.039-8.521-5.521c-3.358-3.039-5.66-6.316-6.899-9.84
	c-1.241-3.52-1.86-7.52-1.86-12h10.92c0,7.121,2.56,12.44,7.681,15.961c4.079,2.801,9.438,4.199,16.079,4.199
	c7.759,0,13.6-1.438,17.521-4.316c3.358-2.479,5.039-5.877,5.039-10.191c0-4.396-1.263-7.611-3.781-9.652
	c-2.521-2.035-7.383-3.896-14.584-5.576l-17.647-4.046c-4.717-1.121-8.476-2.762-11.272-4.925
	c-4.717-3.685-7.072-8.811-7.072-15.379c0-7.448,2.318-13.575,6.96-18.382c5.358-5.526,12.919-8.29,22.681-8.29
	c13.199,0,22.561,3.401,28.08,10.2c3.68,4.481,5.521,10.242,5.521,17.28h-10.92c0-6.079-2.321-10.639-6.961-13.68
	c-3.84-2.559-8.641-3.84-14.399-3.84c-5.12,0-9.319,0.881-12.601,2.64c-4.723,2.562-7.08,6.72-7.08,12.48
	c0,3.36,1.039,5.921,3.121,7.68c1.68,1.44,4.039,2.52,7.08,3.24l24.6,5.64c6,1.44,10.639,3.881,13.92,7.32
	c3.76,4.001,5.641,9.239,5.641,15.72C164.381,122.46,160.619,129.34,153.102,133.898L153.102,133.898z"/>
</svg>
