<?xml version="1.0" encoding="utf-8"?>
<!-- Generator: Adobe Illustrator 19.1.0, SVG Export Plug-In . SVG Version: 6.00 Build 0)  -->
<svg version="1.1" id="icon" xmlns="http://www.w3.org/2000/svg" xmlns:xlink="http://www.w3.org/1999/xlink" x="0px" y="0px"
	 viewBox="-155 247 300 300" style="enable-background:new -155 247 300 300;" xml:space="preserve">
<style type="text/css">
	.st0{opacity:0.8;}
</style>
<g id="rails">
</g>
<g id="laravel">
</g>
<g id="JS_1_" class="st0">
	<path d="M-81.2,431.5l17.7-10.9c3.4,6.1,6.5,11.3,14,11.3c7.1,0,11.6-2.8,11.6-13.8v-74.6h21.7v74.9c0,22.7-13.2,33.1-32.4,33.1
		C-66,451.6-76.1,442.5-81.2,431.5 M-5,428.8C1.4,441.5,14.5,451,34.8,451c20.8,0,36.2-10.7,36.2-30.2c0-18.2-10.5-26.2-29-34.1
		l-5.5-2.3c-9.4-4.1-13.4-6.7-13.4-13.2c0-5.3,4.1-9.3,10.5-9.3c6.2,0,10.3,2.7,14.1,9.3l17-10.8C57.5,347.9,47.5,343,33.6,343
		c-19.5,0-32,12.4-32,28.7c0,17.7,10.5,26,26.2,32.7l5.5,2.3c10,4.4,15.9,7,15.9,14.4c0,6.2-5.8,10.7-14.8,10.7
		c-10.8,0-16.9-5.6-21.5-13.2L-5,428.8"/>
</g>
</svg>
