<?xml version="1.0" encoding="utf-8"?>
<!-- Generator: Adobe Illustrator 16.0.0, SVG Export Plug-In . SVG Version: 6.00 Build 0)  -->
<!DOCTYPE svg PUBLIC "-//W3C//DTD SVG 1.0//EN" "http://www.w3.org/TR/2001/REC-SVG-20010904/DTD/svg10.dtd">
<svg version="1.0" id="icon" xmlns="http://www.w3.org/2000/svg" xmlns:xlink="http://www.w3.org/1999/xlink" x="0px" y="0px"
	  viewBox="0 0 841.889 1190.549" enable-background="new 0 0 841.889 1190.549"
	 xml:space="preserve">
<title>Layer 1</title>
<g>
	<path d="M241.397,777.912c-1.662-2.562-3.035-4.674-4.448-6.753l-20.393-30.041c-25.598-37.716-52.047-76.69-78.319-114.949
		c17.614-19.469,35.248-39.386,52.362-58.717l10.14-11.449c3.117-3.519,6.088-7.106,8.987-10.605l0.241-0.291
		c1.179-1.423,2.358-2.846,3.547-4.262l9.421-11.222l-10.986-9.695c-0.881-0.777-1.761-1.564-2.641-2.358l-11.021-9.957
		l-10.079,10.91c-16.071,17.396-32.021,35.33-47.444,52.672c-13.626,15.319-27.609,31.042-41.827,46.557
		c-0.011-51.493-0.01-102.983-0.008-154.477l0.001-52.866c0-0.266,0.027-0.538,0.046-0.811l0.017-0.233
		c0.18-2.513,0.479-6.718-1.307-11.337c-2.5-6.377-8.671-13.961-17.828-14.352c-4.591-0.2-9.494-0.29-15.9-0.29
		c-2.401,0-4.816,0.013-7.249,0.025l-0.417,0.001c-2.566,0.014-5.154,0.027-7.769,0.027H33.505v421.855h15.019
		c2.848,0,5.655-0.037,8.512-0.074c2.556-0.034,5.084-0.069,7.596-0.069c3.649,0,6.618,0.077,9.356,0.24
		c0.796,0.045,1.557,0.066,2.283,0.066c6.938,0,12.542-2.14,16.659-6.358c6.377-6.54,6.165-15.097,6.094-17.908
		c-0.261-10.538-0.202-21.379-0.144-31.93c0.025-4.618,0.05-9.234,0.05-13.848c0.001-6.114-0.072-12.292-0.144-18.332
		c-0.159-13.271-0.322-26.941,0.353-40.214c13.254,19.338,26.597,38.929,39.545,57.938l0.204,0.3
		c12.91,18.955,26.26,38.557,39.581,57.993c1.813,2.64,8.521,11.295,18.698,11.875c4.625,0.264,9.539,0.383,15.928,0.383
		c2.86,0,5.778-0.022,8.78-0.045l0.197-0.001c3.042-0.024,6.176-0.051,9.431-0.051h27.777l-15.21-23.24
		C243.149,780.613,241.397,777.912,241.397,777.912z"/>
	<path d="M480.517,541.515c-24.549-19.682-54.064-29.274-92.889-30.184l-1.071-0.024l-1.062,0.127
		c-3.365,0.403-6.867,0.757-10.289,1.104c-7.887,0.798-16.043,1.624-24.26,3.193c-48.231,9.219-90.475,51.71-100.445,101.035
		c-5.511,27.248-6.546,52.874-3.162,78.337c5.66,42.574,24.394,72.729,57.268,92.183c22.063,13.064,47.179,19.414,76.784,19.414
		c6.963,0,14.132-0.336,21.917-1.025c54.56-4.844,98.312-40.09,114.185-91.984c9.271-30.305,10.589-63.428,4.029-101.266
		C516.44,583.101,502.644,559.243,480.517,541.515z M311.278,663.8c-1.178-31.877,4.764-58.565,18.163-81.59
		c13.479-23.167,34.773-36.453,58.421-36.453c9.505,0,19.065,2.149,28.415,6.39c18.614,8.438,31.096,24.104,37.1,46.563
		c11.956,44.739,10.305,86.612-4.898,124.457c-10.188,25.331-26.596,41.401-48.768,47.763c-5.71,1.64-11.573,2.472-17.429,2.472
		c-23.142-0.002-44.775-13.064-56.458-34.089c-11.077-19.95-15.698-43.592-14.545-74.398l0.02-0.558L311.278,663.8z"/>
	<path d="M786.644,772.396c-0.772-0.127-1.492-0.291-2.188-0.445c-1.826-0.408-4.098-0.918-6.812-0.918
		c-0.96,0-1.889,0.064-2.869,0.197c-0.971,0.138-1.905,0.208-2.779,0.208c-3.872,0-6.686-1.336-8.856-4.203
		c-2.444-3.228-3.903-8.301-3.902-13.569c0.039-56.771,0.026-117.59-0.331-177.693c-0.135-24.125-12.784-43.356-34.696-52.763
		c-12.082-5.193-26.372-8.667-41.33-10.048c-7.976-0.739-15.975-1.113-23.771-1.113c-24.452,0-48.214,3.667-70.629,10.898
		c-6.69,2.161-13.063,4.758-19.273,7.29c-2.682,1.095-5.366,2.189-8.063,3.241l-13.626,5.31l4.939,13.745l5.59,15.672l13.112-3.138
		c0.497-0.119,0.997-0.224,1.508-0.331c1.592-0.337,3.57-0.757,5.709-1.487c4.142-1.41,8.381-2.945,12.137-4.306
		c7.557-2.737,15.369-5.566,22.938-7.647c13.683-3.761,25.618-5.589,36.494-5.589c6.051,0,11.978,0.572,17.616,1.702
		c14.435,2.892,25.366,13.259,25.43,24.113c0.05,9.423,0.049,18.849,0.046,28.275v0.166c-0.002,16.181-0.005,32.86,0.269,49.405
		c-4.998-0.087-9.593-0.13-13.944-0.13c-27.17,0-62.892,1.449-98.253,12.762c-28.486,9.104-43.567,26.345-44.826,51.245
		c-0.485,9.604-0.174,17.892,0.958,25.336c4.722,31.037,20.728,52.12,46.283,60.969c13.47,4.664,29.146,7.13,45.337,7.13
		c0.74,0,1.483-0.006,2.228-0.014c29.999-0.413,54.312-10.128,72.421-28.905c14.133,17.678,37.764,29.404,60.768,29.404
		c10.205,0,19.436-2.328,27.432-6.922l36.674-21.063L786.644,772.396z M605.275,706.641c1.587-5.806,5.528-13.048,22.08-17.55
		c17.074-4.643,35.065-6.901,55.006-6.901c3.516,0,7.141,0.073,10.861,0.221c0.003,7.075-0.001,20.686-0.001,20.687
		c0,0.516-0.018,1.033-0.035,1.549l-0.004,0.196c-0.063,1.91-0.141,4.287,0.174,6.986c3.077,25.825-8.5,42.96-38.708,57.295
		c-6.192,2.937-12.705,4.489-18.832,4.489c-10.049,0-18.496-4.007-23.787-11.282c-5.945-8.179-8.871-18.473-8.952-31.469
		C603.029,722.647,603.262,714.028,605.275,706.641z"/>
</g>
</svg>
