<?xml version="1.0" encoding="UTF-8" standalone="no"?>
<!-- Generator: Adobe Illustrator 17.1.0, SVG Export Plug-In . SVG Version: 6.00 Build 0)  -->

<svg
   xmlns:dc="http://purl.org/dc/elements/1.1/"
   xmlns:cc="http://creativecommons.org/ns#"
   xmlns:rdf="http://www.w3.org/1999/02/22-rdf-syntax-ns#"
   xmlns:svg="http://www.w3.org/2000/svg"
   xmlns="http://www.w3.org/2000/svg"
   xmlns:sodipodi="http://sodipodi.sourceforge.net/DTD/sodipodi-0.dtd"
   xmlns:inkscape="http://www.inkscape.org/namespaces/inkscape"
   version="1.1"
   id="icon"
   x="0px"
   y="0px"
   viewBox="0 0 300 300"
   enable-background="new 0 0 300 300"
   xml:space="preserve"
   inkscape:version="0.91 r13725"
   sodipodi:docname="nodejs.svg"><metadata
     id="metadata3548"><rdf:RDF><cc:Work
         rdf:about=""><dc:format>image/svg+xml</dc:format><dc:type
           rdf:resource="http://purl.org/dc/dcmitype/StillImage" /></cc:Work></rdf:RDF></metadata><defs
     id="defs3546" /><sodipodi:namedview
     pagecolor="#ffffff"
     bordercolor="#666666"
     borderopacity="1"
     objecttolerance="10"
     gridtolerance="10"
     guidetolerance="10"
     inkscape:pageopacity="0"
     inkscape:pageshadow="2"
     inkscape:window-width="640"
     inkscape:window-height="480"
     id="namedview3544"
     showgrid="false"
     inkscape:zoom="0.78666667"
     inkscape:cx="150"
     inkscape:cy="150"
     inkscape:window-x="71"
     inkscape:window-y="62"
     inkscape:window-maximized="0"
     inkscape:current-layer="icon" /><g
     id="rails" /><g
     id="laravel" /><linearGradient
     id="SVGID_1_"
     gradientUnits="userSpaceOnUse"
     x1="152.0411"
     y1="223.9372"
     x2="146.7525"
     y2="72.4875"><stop
       offset="0"
       style="stop-color:#FFFFFF;stop-opacity:0.7"
       id="stop3538" /><stop
       offset="1"
       style="stop-color:#FFFFFF;stop-opacity:0.9"
       id="stop3540" /></linearGradient><path
     fill="url(#SVGID_1_)"
     d="M222.38,217.69c0,1.39-0.75,2.69-1.94,3.38c-1.2,0.72-2.7,0.72-3.9,0l-38.44-22.01  c-2.42-1.43-3.92-3.99-3.92-6.78v-46.84c0-2.79-1.48-5.38-3.9-6.77l-16.37-9.43c-1.18-0.7-2.56-1.05-3.89-1.05  c-1.36,0-2.7,0.35-3.92,1.05l-16.37,9.43c-2.42,1.39-3.9,3.97-3.9,6.77v46.84c0,2.78-1.48,5.34-3.91,6.78l-38.45,22.01  c-1.2,0.72-2.68,0.72-3.89,0c-1.23-0.68-1.95-1.98-1.95-3.38L77.5,117.44c0-2.81,1.5-5.4,3.91-6.79l64.69-37.23  c1.11-0.64,2.34-0.98,3.57-1.03c0.1,0,0.55,0,0.67,0c1.24,0.05,2.47,0.39,3.56,1.03l64.69,37.23c2.43,1.39,3.9,3.97,3.9,6.79  L222.38,217.69z"
     id="path3542"
     style="fill:#000000" /></svg>